<svg aria-labelledby="#homepage" aria-hidden="true" fill="none" xmlns="http://www.w3.org/2000/svg" viewBox="0 0 197 38">
<path d="M45.373 27.552c-.821 0-1.6-.107-2.336-.32-.725-.224-1.317-.523-1.776-.896-.245-.181-.368-.437-.368-.768 0-.224.064-.416.192-.576.139-.17.299-.256.48-.256.192 0 .41.075.656.224.459.33.939.57 1.44.72.501.15 1.056.224 1.664.224.779 0 1.376-.133 1.792-.4.416-.277.624-.677.624-1.2 0-.405-.197-.714-.592-.928-.384-.224-1.03-.437-1.936-.64-.939-.203-1.701-.437-2.288-.704-.587-.267-1.03-.608-1.328-1.024-.299-.416-.448-.944-.448-1.584 0-.661.187-1.253.56-1.776.373-.523.89-.928 1.552-1.216.672-.298 1.424-.448 2.256-.448 1.525 0 2.768.406 3.728 1.216.139.117.235.235.288.352a.8.8 0 0 1 .096.416c0 .224-.07.422-.208.592a.576.576 0 0 1-.464.24.955.955 0 0 1-.304-.048 2.655 2.655 0 0 1-.352-.176 5.119 5.119 0 0 0-1.28-.704c-.405-.16-.907-.24-1.504-.24-.725 0-1.301.15-1.728.448-.416.288-.624.694-.624 1.216 0 .438.187.774.56 1.008.373.235 1.008.454 1.904.656.95.213 1.717.453 2.304.72.597.256 1.05.587 1.36.992.32.405.48.912.48 1.52a2.91 2.91 0 0 1-.56 1.76c-.363.501-.88.896-1.552 1.184-.661.277-1.424.416-2.288.416Zm18.875-11.504c.299 0 .539.096.72.288.181.181.272.427.272.736v9.472c0 .299-.085.534-.256.704-.17.17-.395.256-.672.256s-.496-.085-.656-.256c-.16-.17-.24-.405-.24-.704v-6.592l-2.72 5.152c-.128.235-.267.41-.416.528a.885.885 0 0 1-.528.16.884.884 0 0 1-.528-.16c-.15-.107-.288-.283-.416-.528l-2.736-5.072v6.512c0 .288-.085.523-.256.704-.16.17-.379.256-.656.256s-.496-.085-.656-.256c-.16-.17-.24-.405-.24-.704v-9.472c0-.31.085-.555.256-.736.181-.192.421-.288.72-.288.416 0 .741.23.976.688l3.552 6.768 3.536-6.768c.235-.459.55-.688.944-.688Zm7.021 11.456c-.31 0-.56-.096-.752-.288-.181-.192-.272-.443-.272-.752v-9.392c0-.31.09-.555.272-.736.192-.192.443-.288.752-.288.32 0 .57.096.752.288.192.181.288.427.288.736v9.392c0 .31-.096.56-.288.752-.181.192-.432.288-.752.288Zm7.012-.096c-.31 0-.55-.085-.72-.256-.17-.17-.256-.405-.256-.704v-9.376c0-.31.09-.555.272-.736.192-.192.443-.288.752-.288.32 0 .57.096.752.288.192.181.288.427.288.736v8.64h4.496c.64 0 .96.283.96.848 0 .566-.32.848-.96.848h-5.584Zm11.451 0c-.31 0-.555-.085-.736-.256-.17-.17-.256-.41-.256-.72v-9.328c0-.31.086-.55.256-.72.181-.17.427-.256.736-.256h5.776c.31 0 .55.07.72.208.17.139.256.336.256.592 0 .267-.085.475-.256.624-.17.139-.41.208-.72.208h-4.752v3.104h4.432c.31 0 .55.07.72.208.17.139.256.341.256.608 0 .256-.085.454-.256.592-.17.139-.41.208-.72.208h-4.432v3.296h4.752c.31 0 .55.075.72.224.17.139.256.341.256.608 0 .256-.085.453-.256.592-.17.139-.41.208-.72.208h-5.776Zm18.918.096c-.31 0-.56-.096-.752-.288-.182-.192-.272-.443-.272-.752v-9.392c0-.31.09-.555.272-.736.192-.192.442-.288.752-.288.32 0 .57.096.752.288.192.181.288.427.288.736v9.392c0 .31-.096.56-.288.752-.182.192-.432.288-.752.288Zm7.028-.096c-.31 0-.555-.085-.736-.256-.171-.17-.256-.41-.256-.72v-9.328c0-.31.085-.55.256-.72.181-.17.426-.256.736-.256h3.168c1.845 0 3.274.496 4.288 1.488 1.024.982 1.536 2.363 1.536 4.144 0 1.792-.512 3.184-1.536 4.176-1.014.982-2.443 1.472-4.288 1.472h-3.168Zm3.04-1.68c2.592 0 3.888-1.323 3.888-3.968 0-2.635-1.296-3.952-3.888-3.952h-1.968v7.92h1.968Zm11.582 1.68c-.309 0-.554-.085-.736-.256-.17-.17-.256-.41-.256-.72v-9.328c0-.31.086-.55.256-.72.182-.17.427-.256.736-.256h5.776c.31 0 .55.07.72.208.171.139.256.336.256.592 0 .267-.085.475-.256.624-.17.139-.41.208-.72.208h-4.752v3.104h4.432c.31 0 .55.07.72.208.171.139.256.341.256.608 0 .256-.085.454-.256.592-.17.139-.41.208-.72.208h-4.432v3.296h4.752c.31 0 .55.075.72.224.171.139.256.341.256.608 0 .256-.085.453-.256.592-.17.139-.41.208-.72.208H130.3Zm19.534-11.36c.299 0 .534.096.704.288.182.181.272.427.272.736v9.392c0 .31-.09.56-.272.752a.924.924 0 0 1-.704.288c-.341 0-.602-.123-.784-.368l-5.84-7.6v6.928c0 .31-.085.56-.256.752-.17.192-.405.288-.704.288-.298 0-.533-.096-.704-.288-.17-.192-.256-.443-.256-.752v-9.392c0-.31.091-.555.272-.736.182-.192.422-.288.72-.288.331 0 .587.123.768.368l5.824 7.568v-6.912c0-.31.086-.555.256-.736a.926.926 0 0 1 .704-.288Zm9.665 11.44c-.32 0-.576-.09-.768-.272-.181-.192-.272-.443-.272-.752v-8.64h-2.912c-.64 0-.96-.283-.96-.848s.32-.848.96-.848h7.888c.64 0 .96.283.96.848 0 .566-.32.848-.96.848h-2.912v8.64c0 .31-.096.56-.288.752-.181.181-.426.272-.736.272Zm9.701.016c-.31 0-.56-.096-.752-.288-.182-.192-.272-.443-.272-.752v-9.392c0-.31.09-.555.272-.736.192-.192.442-.288.752-.288.32 0 .57.096.752.288.192.181.288.427.288.736v9.392c0 .31-.096.56-.288.752-.182.192-.432.288-.752.288Zm9.732-.016c-.32 0-.576-.09-.768-.272-.182-.192-.272-.443-.272-.752v-8.64h-2.912c-.64 0-.96-.283-.96-.848s.32-.848.96-.848h7.888c.64 0 .96.283.96.848 0 .566-.32.848-.96.848h-2.912v8.64c0 .31-.096.56-.288.752-.182.181-.427.272-.736.272ZM194.883 16.4c.192-.234.421-.352.688-.352.245 0 .464.096.656.288a.87.87 0 0 1 .288.656c0 .213-.08.416-.24.608l-3.632 4.432v4.432c0 .33-.096.587-.288.768-.192.181-.438.272-.736.272-.31 0-.56-.09-.752-.272-.192-.181-.288-.437-.288-.768v-4.432l-3.632-4.432a.937.937 0 0 1-.24-.608.87.87 0 0 1 .288-.656.903.903 0 0 1 .656-.288c.266 0 .496.118.688.352l3.28 4.064 3.264-4.064Z" fill="#FFFFFF"></path>
<path d="M23.5 16.1v-4.7C23.5 4.8 20.1 1 14.1 1S4.8 4.8 4.8 11.4v1.2c0 .3.2.5.5.5s.5-.2.5-.5v-1.2c0-3.5 1.1-9.3 8.3-9.3 7.2 0 8.3 5.8 8.3 9.3v4.7H4.3c-1.8 0-3.3 1.5-3.3 3.3l.7 14.3C1.7 35.5 3.2 37 5 37h17.3c1.8 0 3.3-1.5 3.3-3.3l.7-14.2c-.1-1.8-1.3-3.1-2.8-3.4Zm.9 17.5c0 1.3-1 2.2-2.2 2.2H5c-1.2 0-2.2-1-2.2-2.2l-.7-14.3c0-1.2 1-2.2 2.2-2.2h18.6c1.2 0 2.2 1 2.2 2.2l-.7 14.3Z" fill="#FFFFFF" stroke="#FFFFFF" stroke-width=".961"></path>
<path d="M6.7 27.399c4.4 4 9.8 3.5 14.3 0 .6-.5-.3-1.4-.9-.9-4 3.1-8.7 3.5-12.6 0-.5-.5-1.4.3-.8.9Z" fill="#17A3DC" stroke="#17A3DC" stroke-width=".961"></path>
</svg>
