<svg width="232" height="170" viewBox="0 0 232 170" fill="none" xmlns="http://www.w3.org/2000/svg">
<path d="M175.636 3.94041L175.636 3.94047L175.641 3.9457L228.389 62.1235L228.394 62.1287C230.431 64.2511 231.638 67.1733 231.75 70.2713V165.467C231.75 166.61 231.338 167.702 230.611 168.504C229.885 169.305 228.905 169.75 227.89 169.75H4.11029C3.09482 169.75 2.11534 169.305 1.38908 168.504C0.662082 167.702 0.25 166.61 0.25 165.467V4.53333C0.25 3.38985 0.662082 2.29753 1.38908 1.49571C2.11534 0.694694 3.09482 0.25 4.11029 0.25H168.285C171.073 0.372846 173.712 1.69401 175.636 3.94041Z" fill="#04080A" stroke="white" stroke-width="0.5"/>
</svg>
