<svg width="1438" height="199" viewBox="0 0 1438 199" fill="none" xmlns="http://www.w3.org/2000/svg">
<g opacity="0.4" clip-path="url(#clip0_13_289)">
<path d="M-559 400.222C-482.929 322.63 -346 26.2553 -193.857 27.7767C-41.7143 29.2981 19.1429 393.832 171.286 407.525C323.429 421.218 384.286 130.777 536.429 93.5025C688.571 56.2275 749.429 249.905 901.571 228.605C1053.71 207.305 1114.57 -29.2769 1266.71 -8.73758C1418.86 11.8017 1479.71 313.501 1631.86 327.194C1784 340.887 1920.93 113.281 1997 56.9882" stroke="url(#paint0_linear_13_289)" stroke-width="0.5" stroke-linecap="round"/>
<path d="M-527.829 395.315C-453.613 319.614 -320.024 30.4685 -171.592 31.9528C-23.16 33.4371 36.2128 389.08 184.645 402.439C333.077 415.798 392.45 132.441 540.882 96.0755C689.314 59.7096 748.687 248.664 897.119 227.883C1045.55 207.103 1104.92 -23.7093 1253.36 -3.67093C1401.79 16.3674 1461.16 310.708 1609.59 324.067C1758.02 337.426 1891.61 115.372 1965.83 60.4517" stroke="url(#paint1_linear_13_289)" stroke-width="0.5" stroke-linecap="round"/>
<path d="M-496.659 390.406C-424.298 316.599 -294.049 34.6816 -149.328 36.1288C-4.60636 37.5761 53.2821 384.328 198.003 397.353C342.725 410.378 400.613 134.105 545.335 98.6485C690.056 63.1917 747.944 247.422 892.666 227.161C1037.39 206.9 1095.28 -18.1416 1240 1.39574C1384.72 20.9331 1442.61 307.915 1587.33 320.94C1732.05 333.965 1862.3 117.462 1934.66 63.9154" stroke="url(#paint2_linear_13_289)" stroke-width="0.5" stroke-linecap="round"/>
<path d="M-465.488 385.499C-394.983 313.583 -268.073 38.8949 -127.063 40.305C13.9477 41.7151 70.3519 379.576 211.362 392.267C352.373 404.958 408.777 135.769 549.787 101.221C690.798 66.6739 747.202 246.18 888.213 226.439C1029.22 206.697 1085.63 -12.574 1226.64 6.46243C1367.65 25.4988 1424.05 305.123 1565.06 317.814C1706.07 330.505 1832.98 119.553 1903.49 67.3789" stroke="url(#paint3_linear_13_289)" stroke-width="0.5" stroke-linecap="round"/>
<path d="M-434.317 380.591C-365.667 310.568 -242.097 43.108 -104.798 44.481C32.5021 45.854 87.4219 374.824 224.722 387.181C362.021 399.538 416.941 137.433 554.241 103.794C691.541 70.1561 746.46 244.939 883.76 225.717C1021.06 206.495 1075.98 -7.00635 1213.28 11.5291C1350.58 30.0646 1405.5 302.33 1542.8 314.687C1680.1 327.044 1803.67 121.643 1872.32 70.8426" stroke="url(#paint4_linear_13_289)" stroke-width="0.5" stroke-linecap="round"/>
<path d="M-403.146 375.683C-336.352 307.552 -216.122 47.3213 -82.5332 48.6572C51.0557 49.9931 104.491 370.072 238.08 382.095C371.669 394.118 425.104 139.097 558.693 106.368C692.282 73.6383 745.718 243.697 879.307 224.995C1012.9 206.292 1066.33 -1.43867 1199.92 16.5958C1333.51 34.6303 1386.94 299.537 1520.53 311.56C1654.12 323.583 1774.35 123.734 1841.15 74.3062" stroke="url(#paint5_linear_13_289)" stroke-width="0.5" stroke-linecap="round"/>
<path d="M-371.976 370.775C-307.037 304.537 -190.146 51.5345 -60.2683 52.8333C69.6098 54.1321 121.561 365.32 251.439 377.009C381.317 388.698 433.268 140.761 563.146 108.941C693.024 77.1204 744.976 242.455 874.854 224.272C1004.73 206.089 1056.68 4.12901 1186.56 21.6625C1316.44 39.1961 1368.39 296.744 1498.27 308.433C1628.15 320.122 1745.04 125.825 1809.98 77.7698" stroke="url(#paint6_linear_13_289)" stroke-width="0.5" stroke-linecap="round"/>
<path d="M-340.805 365.867C-277.721 301.522 -164.171 55.7477 -38.0032 57.0094C88.164 58.2711 138.631 360.568 264.798 371.923C390.965 383.278 441.432 142.425 567.6 111.514C693.767 80.6027 744.234 241.214 870.401 223.55C996.568 205.887 1047.04 9.69661 1173.2 26.7292C1299.37 43.7618 1349.84 293.952 1476 305.307C1602.17 316.662 1715.72 127.915 1778.81 81.2335" stroke="url(#paint7_linear_13_289)" stroke-width="0.5" stroke-linecap="round"/>
<path d="M-309.634 360.959C-248.406 298.506 -138.195 59.9609 -15.7388 61.1855C106.718 62.41 155.7 355.816 278.157 366.837C400.613 377.858 449.596 144.088 572.052 114.087C694.509 84.0848 743.491 239.972 865.948 222.828C988.404 205.684 1037.39 15.2643 1159.84 31.7959C1282.3 48.3275 1331.28 291.159 1453.74 302.18C1576.19 313.201 1686.41 130.006 1747.63 84.6971" stroke="url(#paint8_linear_13_289)" stroke-width="0.5" stroke-linecap="round"/>
<path d="M-278.463 356.051C-219.091 295.491 -112.219 64.1741 6.52618 65.3616C125.272 66.549 172.77 351.064 291.516 361.751C410.261 372.438 457.76 145.752 576.505 116.66C695.251 87.567 742.749 238.73 861.495 222.106C980.241 205.481 1027.74 20.832 1146.48 36.8626C1265.23 52.8933 1312.73 288.366 1431.47 299.053C1550.22 309.74 1657.09 132.097 1716.46 88.1607" stroke="url(#paint9_linear_13_289)" stroke-width="0.5" stroke-linecap="round"/>
<path d="M-247.292 351.143C-189.775 292.475 -86.2437 68.3874 28.7912 69.5378C143.826 70.6881 189.84 346.312 304.875 356.665C419.91 367.018 465.924 147.416 580.958 119.233C695.993 91.0493 742.007 237.489 857.042 221.384C972.077 205.279 1018.09 26.3997 1133.13 41.9294C1248.16 57.4591 1294.17 285.573 1409.21 295.926C1524.24 306.279 1627.78 134.187 1685.29 91.6244" stroke="url(#paint10_linear_13_289)" stroke-width="0.5" stroke-linecap="round"/>
<path d="M-216.122 346.235C-160.46 289.46 -60.2684 72.6005 51.0556 73.7137C162.38 74.827 206.909 341.559 318.233 351.579C429.557 361.598 474.087 149.08 585.411 121.806C696.735 94.5313 741.265 236.247 852.589 220.661C963.913 205.076 1008.44 31.9672 1119.77 46.996C1231.09 62.0247 1275.62 282.78 1386.94 292.8C1498.27 302.819 1598.46 136.278 1654.12 95.088" stroke="url(#paint11_linear_13_289)" stroke-width="0.5" stroke-linecap="round"/>
<path d="M-184.951 341.327C-131.145 286.444 -34.2926 76.8138 73.3207 77.8899C180.934 78.966 223.979 336.807 331.592 346.493C439.206 356.178 482.251 150.744 589.864 124.379C697.478 98.0135 740.523 235.005 848.136 219.939C955.749 204.874 998.795 37.5349 1106.41 52.0627C1214.02 66.5905 1257.07 279.988 1364.68 289.673C1472.29 299.358 1569.15 138.368 1622.95 98.5516" stroke="url(#paint12_linear_13_289)" stroke-width="0.5" stroke-linecap="round"/>
<path d="M-153.78 336.419C-101.829 283.429 -8.31684 81.027 95.5856 82.066C199.488 83.105 241.049 332.055 344.952 341.406C448.854 350.758 490.415 152.408 594.317 126.952C698.22 101.496 739.781 233.764 843.683 219.217C947.586 204.671 989.147 43.1025 1093.05 57.1294C1196.95 71.1562 1238.51 277.195 1342.42 286.546C1446.32 295.897 1539.83 140.459 1591.78 102.015" stroke="url(#paint13_linear_13_289)" stroke-width="0.5" stroke-linecap="round"/>
<path d="M-122.61 331.511C-72.514 280.414 17.6585 85.2403 117.85 86.2422C218.042 87.2441 258.118 327.303 358.31 336.32C458.502 345.338 498.578 154.072 598.77 129.525C698.962 104.978 739.038 232.522 839.23 218.495C939.422 204.468 979.498 48.6703 1079.69 62.1962C1179.88 75.7221 1219.96 274.402 1320.15 283.419C1420.34 292.437 1510.51 142.55 1560.61 105.479" stroke="url(#paint14_linear_13_289)" stroke-width="0.5" stroke-linecap="round"/>
<path d="M-91.439 326.603C-43.1985 277.398 43.6342 89.4535 140.115 90.4183C236.596 91.3831 275.188 322.551 371.669 331.234C468.15 339.918 506.742 155.736 603.223 132.098C699.704 108.46 738.296 231.28 834.777 217.773C931.258 204.266 969.85 54.238 1066.33 67.2629C1162.81 80.2878 1201.4 271.609 1297.89 280.293C1394.37 288.976 1481.2 144.641 1529.44 108.943" stroke="url(#paint15_linear_13_289)" stroke-width="0.5" stroke-linecap="round"/>
<path d="M-60.2686 321.695C-13.8835 274.383 69.6095 93.6666 162.38 94.5944C255.15 95.5221 292.258 317.799 385.028 326.148C477.798 334.498 514.906 157.4 607.676 134.671C700.446 111.942 737.554 230.039 830.324 217.051C923.094 204.063 960.202 59.8056 1052.97 72.3295C1145.74 84.8535 1182.85 268.816 1275.62 277.166C1368.39 285.515 1451.88 146.731 1498.27 112.406" stroke="url(#paint16_linear_13_289)" stroke-width="0.5" stroke-linecap="round"/>
<path d="M-29.0977 316.787C15.432 271.367 95.5853 97.8799 184.645 98.7705C273.704 99.6611 309.327 313.047 398.387 321.062C487.446 329.078 523.07 159.064 612.129 137.244C701.188 115.425 736.812 228.797 825.871 216.329C914.93 203.86 950.554 65.3733 1039.61 77.3963C1128.67 89.4193 1164.3 266.024 1253.36 274.039C1342.41 282.054 1422.57 148.822 1467.1 115.87" stroke="url(#paint17_linear_13_289)" stroke-width="0.5" stroke-linecap="round"/>
<path d="M2.07324 311.88C44.7475 268.352 121.561 102.093 206.91 102.947C292.258 103.8 326.397 308.295 411.746 315.976C497.094 323.658 531.234 160.728 616.582 139.817C701.93 118.907 736.07 227.555 821.418 215.607C906.767 203.658 940.906 70.9409 1026.25 82.4629C1111.6 93.985 1145.74 263.231 1231.09 270.912C1316.44 278.594 1393.25 150.912 1435.93 119.333" stroke="url(#paint18_linear_13_289)" stroke-width="0.5" stroke-linecap="round"/>
<path d="M33.2441 306.972C74.063 265.336 147.537 106.306 229.174 107.123C310.812 107.939 343.467 303.543 425.105 310.89C506.742 318.238 539.398 162.391 621.035 142.39C702.673 122.389 735.328 226.314 816.966 214.884C898.603 203.455 931.258 76.5086 1012.9 87.5296C1094.53 98.5507 1127.19 260.438 1208.83 267.786C1290.46 275.133 1363.94 153.003 1404.76 122.797" stroke="url(#paint19_linear_13_289)" stroke-width="0.5" stroke-linecap="round"/>
<path d="M64.4146 302.064C103.378 262.321 173.512 110.52 251.439 111.299C329.366 112.078 360.537 298.791 438.463 305.804C516.39 312.818 547.561 164.055 625.488 144.963C703.415 125.871 734.585 225.072 812.512 214.162C890.439 203.252 921.61 82.0762 999.537 92.5964C1077.46 103.116 1108.63 257.645 1186.56 264.659C1264.49 271.672 1334.62 155.094 1373.59 126.261" stroke="url(#paint20_linear_13_289)" stroke-width="0.5" stroke-linecap="round"/>
<path d="M95.5854 297.156C132.693 259.306 199.488 114.733 273.704 115.475C347.92 116.217 377.606 294.039 451.822 300.718C526.038 307.398 555.725 165.719 629.941 147.536C704.157 129.353 733.843 223.83 808.059 213.44C882.275 203.05 911.962 87.6438 986.178 97.663C1060.39 107.682 1090.08 254.853 1164.3 261.532C1238.51 268.211 1305.31 157.184 1342.41 129.724" stroke="url(#paint21_linear_13_289)" stroke-width="0.5" stroke-linecap="round"/>
<path d="M126.756 292.248C162.009 256.29 225.464 118.946 295.969 119.651C366.474 120.356 394.676 289.287 465.181 295.632C535.687 301.978 563.889 167.383 634.394 150.109C704.899 132.836 733.101 222.589 803.607 212.718C874.112 202.847 902.314 93.2116 972.819 102.73C1043.32 112.248 1071.53 252.06 1142.03 258.405C1212.54 264.751 1275.99 159.275 1311.24 133.188" stroke="url(#paint22_linear_13_289)" stroke-width="0.5" stroke-linecap="round"/>
<path d="M157.927 287.34C191.324 253.275 251.439 123.159 318.233 123.827C385.028 124.495 411.746 284.535 478.54 290.546C545.334 296.558 572.052 169.047 638.847 152.682C705.641 136.318 732.359 221.347 799.153 211.996C865.948 202.645 892.666 98.7791 959.46 107.796C1026.25 116.814 1052.97 249.267 1119.77 255.278C1186.56 261.29 1246.68 161.366 1280.07 136.652" stroke="url(#paint23_linear_13_289)" stroke-width="0.5" stroke-linecap="round"/>
<path d="M189.098 282.432C220.639 250.259 277.415 127.372 340.498 128.003C403.582 128.634 428.815 279.782 491.899 285.46C554.983 291.137 580.216 170.711 643.3 155.255C706.383 139.8 731.617 220.105 794.701 211.274C857.784 202.442 883.018 104.347 946.101 112.863C1009.18 121.379 1034.42 246.474 1097.5 252.152C1160.59 257.829 1217.36 163.456 1248.9 140.115" stroke="url(#paint24_linear_13_289)" stroke-width="0.5" stroke-linecap="round"/>
<path d="M220.269 277.524C249.955 247.244 303.39 131.586 362.763 132.179C422.136 132.773 445.885 275.03 505.258 280.374C564.631 285.717 588.38 172.375 647.753 157.828C707.126 143.282 730.875 218.864 790.248 210.551C849.62 202.239 873.37 109.915 932.742 117.93C992.115 125.945 1015.86 243.681 1075.24 249.025C1134.61 254.369 1188.05 165.547 1217.73 143.579" stroke="url(#paint25_linear_13_289)" stroke-width="0.5" stroke-linecap="round"/>
<path d="M251.439 272.616C279.27 244.228 329.366 135.799 385.028 136.355C440.69 136.912 462.955 270.278 518.617 275.288C574.279 280.297 596.544 174.039 652.206 160.401C707.868 146.764 730.133 217.622 785.795 209.829C841.457 202.037 863.722 115.482 919.384 122.996C975.046 130.511 997.31 240.889 1052.97 245.898C1108.63 250.908 1158.73 167.637 1186.56 147.042" stroke="url(#paint26_linear_13_289)" stroke-width="0.5" stroke-linecap="round"/>
<path d="M282.61 267.708C308.585 241.213 355.342 140.012 407.293 140.531C459.244 141.051 480.025 265.526 531.976 270.202C583.927 274.877 604.707 175.703 656.659 162.974C708.61 150.246 729.39 216.38 781.342 209.107C833.293 201.834 854.073 121.05 906.025 128.063C957.976 135.077 978.756 238.096 1030.71 242.772C1082.66 247.447 1129.41 169.728 1155.39 150.506" stroke="url(#paint27_linear_13_289)" stroke-width="0.5" stroke-linecap="round"/>
<path d="M313.781 262.8C337.901 238.197 381.317 144.225 429.558 144.708C477.798 145.19 497.094 260.774 545.335 265.116C593.575 269.457 612.871 177.366 661.112 165.547C709.352 153.729 728.648 215.139 776.889 208.385C825.129 201.631 844.425 126.617 892.666 133.13C940.906 139.642 960.202 235.303 1008.44 239.645C1056.68 243.986 1100.1 171.819 1124.22 153.97" stroke="url(#paint28_linear_13_289)" stroke-width="0.5" stroke-linecap="round"/>
<path d="M344.951 257.892C367.216 235.182 407.293 148.438 451.822 148.884C496.352 149.329 514.164 256.022 558.693 260.03C603.223 264.037 621.035 179.03 665.564 168.121C710.094 157.211 727.906 213.897 772.436 207.663C816.965 201.429 834.777 132.185 879.307 138.197C923.836 144.208 941.648 232.51 986.178 236.518C1030.71 240.526 1070.78 173.909 1093.05 157.433" stroke="url(#paint29_linear_13_289)" stroke-width="0.5" stroke-linecap="round"/>
<path d="M376.122 252.984C396.531 232.167 433.268 152.652 474.087 153.06C514.906 153.468 531.234 251.27 572.052 254.944C612.871 258.617 629.199 180.694 670.018 170.693C710.836 160.693 727.164 212.655 767.983 206.941C808.802 201.226 825.129 137.753 865.948 143.263C906.767 148.774 923.094 229.718 963.913 233.391C1004.73 237.065 1041.47 176 1061.88 160.897" stroke="url(#paint30_linear_13_289)" stroke-width="0.5" stroke-linecap="round"/>
<path d="M407.293 248.076C425.847 229.151 459.244 156.865 496.352 157.236C533.46 157.607 548.303 246.518 585.411 249.858C622.519 253.197 637.363 182.358 674.471 173.267C711.579 164.175 726.422 211.414 763.53 206.219C800.638 201.023 815.481 143.32 852.589 148.33C889.697 153.34 904.54 226.925 941.648 230.265C978.756 233.604 1012.15 178.091 1030.71 164.361" stroke="url(#paint31_linear_13_289)" stroke-width="0.5" stroke-linecap="round"/>
<path d="M438.463 243.169C455.162 226.136 485.219 161.078 518.617 161.412C552.014 161.746 565.373 241.766 598.77 244.772C632.167 247.777 645.526 184.022 678.923 175.84C712.321 167.657 725.679 210.172 759.077 205.496C792.474 200.821 805.833 148.888 839.23 153.397C872.627 157.905 885.986 224.132 919.383 227.138C952.781 230.144 982.838 180.181 999.537 167.824" stroke="url(#paint32_linear_13_289)" stroke-width="0.5" stroke-linecap="round"/>
<path d="M469.634 238.261C484.477 223.121 511.195 165.291 540.882 165.588C570.568 165.885 582.443 237.014 612.129 239.685C641.815 242.357 653.69 185.686 683.376 178.413C713.063 171.14 724.937 208.93 754.624 204.774C784.31 200.618 796.185 154.456 825.871 158.463C855.558 162.471 867.432 221.339 897.119 224.011C926.805 226.683 953.523 182.272 968.366 171.288" stroke="url(#paint33_linear_13_289)" stroke-width="0.5" stroke-linecap="round"/>
<path d="M500.805 233.353C513.793 220.105 537.171 169.505 563.147 169.764C589.122 170.024 599.513 232.262 625.488 234.599C651.464 236.937 661.854 187.35 687.83 180.986C713.805 174.622 724.195 207.689 750.171 204.052C776.147 200.416 786.537 160.024 812.513 163.53C838.488 167.037 848.878 218.547 874.854 220.884C900.83 223.222 924.208 184.363 937.195 174.752" stroke="url(#paint34_linear_13_289)" stroke-width="0.5" stroke-linecap="round"/>
<path d="M531.976 228.445C543.108 217.09 563.146 173.718 585.411 173.94C607.676 174.163 616.582 227.51 638.847 229.513C661.112 231.517 670.017 189.014 692.282 183.559C714.547 178.104 723.453 206.447 745.718 203.33C767.983 200.213 776.888 165.591 799.153 168.597C821.418 171.603 830.324 215.754 852.589 217.758C874.854 219.761 894.892 186.453 906.024 178.215" stroke="url(#paint35_linear_13_289)" stroke-width="0.5" stroke-linecap="round"/>
<path d="M563.146 223.537C572.423 214.074 589.122 177.931 607.676 178.117C626.23 178.302 633.652 222.757 652.206 224.427C670.76 226.097 678.181 190.678 696.735 186.132C715.289 181.586 722.711 205.205 741.265 202.608C759.819 200.01 767.241 171.159 785.795 173.664C804.349 176.168 811.77 212.961 830.324 214.631C848.878 216.301 865.577 188.544 874.854 181.679" stroke="url(#paint36_linear_13_289)" stroke-width="0.5" stroke-linecap="round"/>
<path d="M594.317 218.629C601.739 211.059 615.098 182.144 629.941 182.293C644.784 182.441 650.722 218.005 665.565 219.341C680.408 220.677 686.345 192.342 701.188 188.705C716.032 185.068 721.969 203.964 736.812 201.886C751.655 199.808 757.593 176.727 772.436 178.73C787.279 180.734 793.216 210.168 808.06 211.504C822.903 212.84 836.262 190.635 843.683 185.143" stroke="url(#paint37_linear_13_289)" stroke-width="0.5" stroke-linecap="round"/>
<path d="M625.488 213.721C631.054 208.043 641.073 186.357 652.206 186.469C663.338 186.58 667.791 213.253 678.923 214.255C690.056 215.257 694.509 194.005 705.641 191.278C716.773 188.551 721.226 202.722 732.359 201.164C743.491 199.605 747.944 182.294 759.077 183.797C770.209 185.3 774.662 207.375 785.794 208.377C796.927 209.379 806.946 192.725 812.512 188.606" stroke="url(#paint38_linear_13_289)" stroke-width="0.5" stroke-linecap="round"/>
<path d="M656.659 208.813C660.369 205.028 667.049 190.571 674.471 190.645C681.892 190.719 684.861 208.501 692.282 209.169C699.704 209.837 702.673 195.669 710.094 193.851C717.516 192.033 720.484 201.48 727.906 200.441C735.328 199.402 738.296 187.862 745.718 188.864C753.139 189.866 756.108 204.583 763.53 205.25C770.951 205.918 777.631 194.816 781.342 192.07" stroke="url(#paint39_linear_13_289)" stroke-width="0.5" stroke-linecap="round"/>
<path d="M687.83 203.905C689.685 202.012 693.025 194.784 696.736 194.821C700.446 194.858 701.931 203.749 705.641 204.083C709.352 204.417 710.837 197.333 714.547 196.424C718.258 195.515 719.743 200.239 723.453 199.719C727.164 199.2 728.648 193.429 732.359 193.93C736.07 194.431 737.554 201.79 741.265 202.124C744.976 202.458 748.316 196.906 750.171 195.533" stroke="url(#paint40_linear_13_289)" stroke-width="0.5" stroke-linecap="round"/>
</g>
<defs>
<linearGradient id="paint0_linear_13_289" x1="719" y1="-10" x2="719" y2="407.994" gradientUnits="userSpaceOnUse">
<stop offset="0.45" stop-color="#1F89DB"/>
<stop offset="0.723958" stop-color="#6B7AFF"/>
<stop offset="1" stop-color="#FFCD6B"/>
</linearGradient>
<linearGradient id="paint1_linear_13_289" x1="719" y1="-4.90257" x2="719" y2="402.897" gradientUnits="userSpaceOnUse">
<stop offset="0.45" stop-color="#1F89DB"/>
<stop offset="0.723958" stop-color="#6B7AFF"/>
<stop offset="1" stop-color="#FFCD6B"/>
</linearGradient>
<linearGradient id="paint2_linear_13_289" x1="719" y1="0.194901" x2="719" y2="397.799" gradientUnits="userSpaceOnUse">
<stop offset="0.45" stop-color="#1F89DB"/>
<stop offset="0.723958" stop-color="#6B7AFF"/>
<stop offset="1" stop-color="#FFCD6B"/>
</linearGradient>
<linearGradient id="paint3_linear_13_289" x1="719" y1="5.29237" x2="719" y2="392.702" gradientUnits="userSpaceOnUse">
<stop offset="0.45" stop-color="#1F89DB"/>
<stop offset="0.723958" stop-color="#6B7AFF"/>
<stop offset="1" stop-color="#FFCD6B"/>
</linearGradient>
<linearGradient id="paint4_linear_13_289" x1="719" y1="10.3898" x2="719" y2="387.604" gradientUnits="userSpaceOnUse">
<stop offset="0.45" stop-color="#1F89DB"/>
<stop offset="0.723958" stop-color="#6B7AFF"/>
<stop offset="1" stop-color="#FFCD6B"/>
</linearGradient>
<linearGradient id="paint5_linear_13_289" x1="719" y1="15.4874" x2="719" y2="382.507" gradientUnits="userSpaceOnUse">
<stop offset="0.45" stop-color="#1F89DB"/>
<stop offset="0.723958" stop-color="#6B7AFF"/>
<stop offset="1" stop-color="#FFCD6B"/>
</linearGradient>
<linearGradient id="paint6_linear_13_289" x1="719" y1="20.5849" x2="719" y2="377.409" gradientUnits="userSpaceOnUse">
<stop offset="0.45" stop-color="#1F89DB"/>
<stop offset="0.723958" stop-color="#6B7AFF"/>
<stop offset="1" stop-color="#FFCD6B"/>
</linearGradient>
<linearGradient id="paint7_linear_13_289" x1="719" y1="25.6823" x2="719" y2="372.312" gradientUnits="userSpaceOnUse">
<stop offset="0.45" stop-color="#1F89DB"/>
<stop offset="0.723958" stop-color="#6B7AFF"/>
<stop offset="1" stop-color="#FFCD6B"/>
</linearGradient>
<linearGradient id="paint8_linear_13_289" x1="719" y1="30.7798" x2="719" y2="367.214" gradientUnits="userSpaceOnUse">
<stop offset="0.45" stop-color="#1F89DB"/>
<stop offset="0.723958" stop-color="#6B7AFF"/>
<stop offset="1" stop-color="#FFCD6B"/>
</linearGradient>
<linearGradient id="paint9_linear_13_289" x1="719" y1="35.8773" x2="719" y2="362.117" gradientUnits="userSpaceOnUse">
<stop offset="0.45" stop-color="#1F89DB"/>
<stop offset="0.723958" stop-color="#6B7AFF"/>
<stop offset="1" stop-color="#FFCD6B"/>
</linearGradient>
<linearGradient id="paint10_linear_13_289" x1="719" y1="40.9749" x2="719" y2="357.019" gradientUnits="userSpaceOnUse">
<stop offset="0.45" stop-color="#1F89DB"/>
<stop offset="0.723958" stop-color="#6B7AFF"/>
<stop offset="1" stop-color="#FFCD6B"/>
</linearGradient>
<linearGradient id="paint11_linear_13_289" x1="719" y1="46.0723" x2="719" y2="351.922" gradientUnits="userSpaceOnUse">
<stop offset="0.45" stop-color="#1F89DB"/>
<stop offset="0.723958" stop-color="#6B7AFF"/>
<stop offset="1" stop-color="#FFCD6B"/>
</linearGradient>
<linearGradient id="paint12_linear_13_289" x1="719" y1="51.1698" x2="719" y2="346.824" gradientUnits="userSpaceOnUse">
<stop offset="0.45" stop-color="#1F89DB"/>
<stop offset="0.723958" stop-color="#6B7AFF"/>
<stop offset="1" stop-color="#FFCD6B"/>
</linearGradient>
<linearGradient id="paint13_linear_13_289" x1="719" y1="56.2672" x2="719" y2="341.727" gradientUnits="userSpaceOnUse">
<stop offset="0.45" stop-color="#1F89DB"/>
<stop offset="0.723958" stop-color="#6B7AFF"/>
<stop offset="1" stop-color="#FFCD6B"/>
</linearGradient>
<linearGradient id="paint14_linear_13_289" x1="719" y1="61.3648" x2="719" y2="336.629" gradientUnits="userSpaceOnUse">
<stop offset="0.45" stop-color="#1F89DB"/>
<stop offset="0.723958" stop-color="#6B7AFF"/>
<stop offset="1" stop-color="#FFCD6B"/>
</linearGradient>
<linearGradient id="paint15_linear_13_289" x1="719" y1="66.4624" x2="719" y2="331.532" gradientUnits="userSpaceOnUse">
<stop offset="0.45" stop-color="#1F89DB"/>
<stop offset="0.723958" stop-color="#6B7AFF"/>
<stop offset="1" stop-color="#FFCD6B"/>
</linearGradient>
<linearGradient id="paint16_linear_13_289" x1="719" y1="71.5598" x2="719" y2="326.434" gradientUnits="userSpaceOnUse">
<stop offset="0.45" stop-color="#1F89DB"/>
<stop offset="0.723958" stop-color="#6B7AFF"/>
<stop offset="1" stop-color="#FFCD6B"/>
</linearGradient>
<linearGradient id="paint17_linear_13_289" x1="719" y1="76.6573" x2="719" y2="321.337" gradientUnits="userSpaceOnUse">
<stop offset="0.45" stop-color="#1F89DB"/>
<stop offset="0.723958" stop-color="#6B7AFF"/>
<stop offset="1" stop-color="#FFCD6B"/>
</linearGradient>
<linearGradient id="paint18_linear_13_289" x1="719" y1="81.7547" x2="719" y2="316.239" gradientUnits="userSpaceOnUse">
<stop offset="0.45" stop-color="#1F89DB"/>
<stop offset="0.723958" stop-color="#6B7AFF"/>
<stop offset="1" stop-color="#FFCD6B"/>
</linearGradient>
<linearGradient id="paint19_linear_13_289" x1="719" y1="86.8522" x2="719" y2="311.142" gradientUnits="userSpaceOnUse">
<stop offset="0.45" stop-color="#1F89DB"/>
<stop offset="0.723958" stop-color="#6B7AFF"/>
<stop offset="1" stop-color="#FFCD6B"/>
</linearGradient>
<linearGradient id="paint20_linear_13_289" x1="719" y1="91.9498" x2="719" y2="306.044" gradientUnits="userSpaceOnUse">
<stop offset="0.45" stop-color="#1F89DB"/>
<stop offset="0.723958" stop-color="#6B7AFF"/>
<stop offset="1" stop-color="#FFCD6B"/>
</linearGradient>
<linearGradient id="paint21_linear_13_289" x1="719" y1="97.0472" x2="719" y2="300.947" gradientUnits="userSpaceOnUse">
<stop offset="0.45" stop-color="#1F89DB"/>
<stop offset="0.723958" stop-color="#6B7AFF"/>
<stop offset="1" stop-color="#FFCD6B"/>
</linearGradient>
<linearGradient id="paint22_linear_13_289" x1="719" y1="102.145" x2="719" y2="295.849" gradientUnits="userSpaceOnUse">
<stop offset="0.45" stop-color="#1F89DB"/>
<stop offset="0.723958" stop-color="#6B7AFF"/>
<stop offset="1" stop-color="#FFCD6B"/>
</linearGradient>
<linearGradient id="paint23_linear_13_289" x1="719" y1="107.242" x2="719" y2="290.752" gradientUnits="userSpaceOnUse">
<stop offset="0.45" stop-color="#1F89DB"/>
<stop offset="0.723958" stop-color="#6B7AFF"/>
<stop offset="1" stop-color="#FFCD6B"/>
</linearGradient>
<linearGradient id="paint24_linear_13_289" x1="719" y1="112.34" x2="719" y2="285.654" gradientUnits="userSpaceOnUse">
<stop offset="0.45" stop-color="#1F89DB"/>
<stop offset="0.723958" stop-color="#6B7AFF"/>
<stop offset="1" stop-color="#FFCD6B"/>
</linearGradient>
<linearGradient id="paint25_linear_13_289" x1="719" y1="117.437" x2="719" y2="280.557" gradientUnits="userSpaceOnUse">
<stop offset="0.45" stop-color="#1F89DB"/>
<stop offset="0.723958" stop-color="#6B7AFF"/>
<stop offset="1" stop-color="#FFCD6B"/>
</linearGradient>
<linearGradient id="paint26_linear_13_289" x1="719" y1="122.535" x2="719" y2="275.459" gradientUnits="userSpaceOnUse">
<stop offset="0.45" stop-color="#1F89DB"/>
<stop offset="0.723958" stop-color="#6B7AFF"/>
<stop offset="1" stop-color="#FFCD6B"/>
</linearGradient>
<linearGradient id="paint27_linear_13_289" x1="719" y1="127.632" x2="719" y2="270.362" gradientUnits="userSpaceOnUse">
<stop offset="0.45" stop-color="#1F89DB"/>
<stop offset="0.723958" stop-color="#6B7AFF"/>
<stop offset="1" stop-color="#FFCD6B"/>
</linearGradient>
<linearGradient id="paint28_linear_13_289" x1="719" y1="132.73" x2="719" y2="265.264" gradientUnits="userSpaceOnUse">
<stop offset="0.45" stop-color="#1F89DB"/>
<stop offset="0.723958" stop-color="#6B7AFF"/>
<stop offset="1" stop-color="#FFCD6B"/>
</linearGradient>
<linearGradient id="paint29_linear_13_289" x1="719" y1="137.827" x2="719" y2="260.167" gradientUnits="userSpaceOnUse">
<stop offset="0.45" stop-color="#1F89DB"/>
<stop offset="0.723958" stop-color="#6B7AFF"/>
<stop offset="1" stop-color="#FFCD6B"/>
</linearGradient>
<linearGradient id="paint30_linear_13_289" x1="719" y1="142.925" x2="719" y2="255.069" gradientUnits="userSpaceOnUse">
<stop offset="0.45" stop-color="#1F89DB"/>
<stop offset="0.723958" stop-color="#6B7AFF"/>
<stop offset="1" stop-color="#FFCD6B"/>
</linearGradient>
<linearGradient id="paint31_linear_13_289" x1="719" y1="148.022" x2="719" y2="249.972" gradientUnits="userSpaceOnUse">
<stop offset="0.45" stop-color="#1F89DB"/>
<stop offset="0.723958" stop-color="#6B7AFF"/>
<stop offset="1" stop-color="#FFCD6B"/>
</linearGradient>
<linearGradient id="paint32_linear_13_289" x1="719" y1="153.12" x2="719" y2="244.874" gradientUnits="userSpaceOnUse">
<stop offset="0.45" stop-color="#1F89DB"/>
<stop offset="0.723958" stop-color="#6B7AFF"/>
<stop offset="1" stop-color="#FFCD6B"/>
</linearGradient>
<linearGradient id="paint33_linear_13_289" x1="719" y1="158.217" x2="719" y2="239.777" gradientUnits="userSpaceOnUse">
<stop offset="0.45" stop-color="#1F89DB"/>
<stop offset="0.723958" stop-color="#6B7AFF"/>
<stop offset="1" stop-color="#FFCD6B"/>
</linearGradient>
<linearGradient id="paint34_linear_13_289" x1="719" y1="163.315" x2="719" y2="234.68" gradientUnits="userSpaceOnUse">
<stop offset="0.45" stop-color="#1F89DB"/>
<stop offset="0.723958" stop-color="#6B7AFF"/>
<stop offset="1" stop-color="#FFCD6B"/>
</linearGradient>
<linearGradient id="paint35_linear_13_289" x1="719" y1="168.412" x2="719" y2="229.582" gradientUnits="userSpaceOnUse">
<stop offset="0.45" stop-color="#1F89DB"/>
<stop offset="0.723958" stop-color="#6B7AFF"/>
<stop offset="1" stop-color="#FFCD6B"/>
</linearGradient>
<linearGradient id="paint36_linear_13_289" x1="719" y1="173.51" x2="719" y2="224.485" gradientUnits="userSpaceOnUse">
<stop offset="0.45" stop-color="#1F89DB"/>
<stop offset="0.723958" stop-color="#6B7AFF"/>
<stop offset="1" stop-color="#FFCD6B"/>
</linearGradient>
<linearGradient id="paint37_linear_13_289" x1="719" y1="178.607" x2="719" y2="219.387" gradientUnits="userSpaceOnUse">
<stop offset="0.45" stop-color="#1F89DB"/>
<stop offset="0.723958" stop-color="#6B7AFF"/>
<stop offset="1" stop-color="#FFCD6B"/>
</linearGradient>
<linearGradient id="paint38_linear_13_289" x1="719" y1="183.705" x2="719" y2="214.29" gradientUnits="userSpaceOnUse">
<stop offset="0.45" stop-color="#1F89DB"/>
<stop offset="0.723958" stop-color="#6B7AFF"/>
<stop offset="1" stop-color="#FFCD6B"/>
</linearGradient>
<linearGradient id="paint39_linear_13_289" x1="719" y1="188.802" x2="719" y2="209.192" gradientUnits="userSpaceOnUse">
<stop offset="0.45" stop-color="#1F89DB"/>
<stop offset="0.723958" stop-color="#6B7AFF"/>
<stop offset="1" stop-color="#FFCD6B"/>
</linearGradient>
<linearGradient id="paint40_linear_13_289" x1="719" y1="193.9" x2="719" y2="204.094" gradientUnits="userSpaceOnUse">
<stop offset="0.45" stop-color="#1F89DB"/>
<stop offset="0.723958" stop-color="#6B7AFF"/>
<stop offset="1" stop-color="#FFCD6B"/>
</linearGradient>
<clipPath id="clip0_13_289">
<rect width="1438" height="199" fill="white"/>
</clipPath>
</defs>
</svg>
